<?xml version="1.0" encoding="UTF-8"?>
<svg version="1.1" xmlns="http://www.w3.org/2000/svg" width="694" height="605">
<path d="M0 0 C1.23943359 0.0616333 1.23943359 0.0616333 2.50390625 0.12451172 C50.05273505 2.71192191 92.74780289 20.97608622 127.37890625 53.58984375 C129.93118195 56.00295155 129.93118195 56.00295155 132.5703125 58 C139.72670103 63.89078927 145.03848844 72.27641706 150.37109375 79.78515625 C151.95528111 82.05574654 151.95528111 82.05574654 154 84 C176 118.97841727 176 118.97841727 176 134 C176.66 134.33 177.32 134.66 178 135 C178.52734375 136.94140625 178.52734375 136.94140625 178.9375 139.5625 C179.50890385 143.04080754 180.08718207 146.51216993 180.7578125 149.97265625 C180.8906665 150.659646 181.02352051 151.34663574 181.16040039 152.05444336 C181.29309326 152.73772705 181.42578613 153.42101074 181.5625 154.125 C187.25236914 183.42930014 184.8475972 214.5875926 176 243 C175.75217773 243.80743652 175.50435547 244.61487305 175.24902344 245.44677734 C167.06400759 271.43699186 153.34412462 295.95911647 139 319 C138.51112305 319.79051758 138.02224609 320.58103516 137.51855469 321.39550781 C134.0668504 326.9656697 130.54998615 332.4920431 127 338 C126.46246094 338.83450684 125.92492187 339.66901367 125.37109375 340.52880859 C114.57441435 357.25301528 103.50243795 373.79502136 92.44189453 390.34521484 C90.2808504 393.57905363 88.12219814 396.81447939 85.96484375 400.05078125 C85.00723145 401.48719971 85.00723145 401.48719971 84.03027344 402.95263672 C82.57824092 405.13208236 81.12709821 407.312105 79.67675781 409.49267578 C73.43134386 418.87831245 67.13287578 428.22721182 60.8125 437.5625 C59.79857998 439.06095107 58.78466402 440.55940488 57.77075195 442.05786133 C51.49021061 451.33699071 45.18906893 460.60169259 38.86621094 469.85205078 C35.56226189 474.69070743 32.29424788 479.55040078 29.0625 484.4375 C22.83007181 493.84779043 16.34293423 503.08338264 9.86523438 512.32568359 C8.19224758 514.72436126 6.53757949 517.13419645 4.890625 519.55078125 C4.01060646 520.82565186 3.1304146 522.10040287 2.25 523.375 C1.51265625 524.45523438 0.7753125 525.53546875 0.015625 526.6484375 C-2 529 -2 529 -4.125 529.9609375 C-6 530 -6 530 -8.25 528.25 C-16.30335916 519.33694398 -22.72479429 508.68494005 -29.52734375 498.81445312 C-30.20667969 497.83283203 -30.88601563 496.85121094 -31.5859375 495.83984375 C-32.1948584 494.95675537 -32.8037793 494.07366699 -33.43115234 493.16381836 C-34.96172613 490.93333483 -34.96172613 490.93333483 -37 489 C-37.96115188 487.53609176 -38.89377159 486.05339851 -39.8125 484.5625 C-44.70253691 476.79893625 -49.93692174 469.27530524 -55.13525391 461.71630859 C-58.49746445 456.81869737 -61.8418694 451.90894519 -65.1875 447 C-65.83525391 446.05020264 -66.48300781 445.10040527 -67.15039062 444.12182617 C-71.74396022 437.38405968 -71.74396022 437.38405968 -74 434 C-74.66 434.33 -75.32 434.66 -76 435 C-76.10054688 434.27683594 -76.20109375 433.55367188 -76.3046875 432.80859375 C-77.09179619 429.6292053 -78.25759592 427.75043012 -80.125 425.0625 C-81.21167969 423.48082031 -81.21167969 423.48082031 -82.3203125 421.8671875 C-82.73958008 421.26358398 -83.15884766 420.65998047 -83.59082031 420.03808594 C-85.1759374 417.74554306 -86.7412301 415.44018019 -88.3046875 413.1328125 C-94.14605411 404.51983337 -100.03055017 395.93999903 -106.00146484 387.41625977 C-114.13712728 375.79913806 -121.97147318 364.01089367 -129.64990234 352.08691406 C-130.75272826 350.38222041 -131.87378026 348.68932961 -133 347 C-131.68 347.33 -130.36 347.66 -129 348 C-129 348.66 -129 349.32 -129 350 C-126.69023698 350.7764194 -126.69023698 350.7764194 -124 351 C-121.94630078 349.85483821 -121.94630078 349.85483821 -120.1875 348 C-119.506875 347.35546875 -118.82625 346.7109375 -118.125 346.046875 C-117.073125 345.03367187 -117.073125 345.03367187 -116 344 C-114.56890069 342.74267704 -113.13160917 341.49235862 -111.6875 340.25 C-109.37185514 338.23966329 -107.14539501 336.19160352 -105 334 C-104.01 334.33 -103.02 334.66 -102 335 C-100.13911164 334.77231982 -98.27871432 334.53904384 -96.42254639 334.27563477 C-91.60644563 333.72766392 -86.75635709 333.77906559 -81.9140625 333.71875 C-80.77593109 333.70034058 -79.63779968 333.68193115 -78.46517944 333.66296387 C-73.61961857 333.58459698 -68.77393189 333.51623771 -63.92822266 333.44775391 C-60.38176325 333.39616388 -56.83542767 333.3389037 -53.2890625 333.28125 C-51.63603622 333.26088684 -51.63603622 333.26088684 -49.94961548 333.2401123 C-48.93450897 333.22339478 -47.91940247 333.20667725 -46.87353516 333.18945312 C-45.53072983 333.17066101 -45.53072983 333.17066101 -44.16079712 333.15148926 C-41.95113778 333.13538788 -41.95113778 333.13538788 -40 332 C-39.34 332 -38.68 332 -38 332 C-38.680625 330.989375 -39.36125 329.97875 -40.0625 328.9375 C-42.3257941 325.04622243 -42.07511878 322.39006837 -41 318 C-40.34 318 -39.68 318 -39 318 C-38.9175 317.44183594 -38.835 316.88367188 -38.75 316.30859375 C-37.4689923 312.36549191 -34.49165935 309.63054214 -31.8125 306.53515625 C-29.9382472 303.91362593 -29.36257868 302.16689816 -29 299 C-30.65 298.34 -32.3 297.68 -34 297 C-34.33 294.36 -34.66 291.72 -35 289 C-33.35 288.67 -31.7 288.34 -30 288 C-30 287.34 -30 286.68 -30 286 C-29.071875 286.020625 -28.14375 286.04125 -27.1875 286.0625 C-23.97713989 286.15769604 -23.97713989 286.15769604 -21 285 C-20.154375 285.04125 -19.30875 285.0825 -18.4375 285.125 C-17.2309375 285.063125 -17.2309375 285.063125 -16 285 C-15.34 284.01 -14.68 283.02 -14 282 C-12.68 282 -11.36 282 -10 282 C-9.67 281.34 -9.34 280.68 -9 280 C-9 280.66 -9 281.32 -9 282 C-6.69 281.34 -4.38 280.68 -2 280 C-2 279.34 -2 278.68 -2 278 C0.375 275.375 0.375 275.375 3 273 C3.66 273 4.32 273 5 273 C5.33 272.34 5.66 271.68 6 271 C6.474375 271.969375 6.94875 272.93875 7.4375 273.9375 C8.70193947 276.80477437 8.70193947 276.80477437 10 278 C12.67058851 278.14115161 15.32432238 278.04247107 18 278 C18 278.66 18 279.32 18 280 C24.50004094 279.26638524 24.50004094 279.26638524 29.25 275.125 C29.8275 274.09375 30.405 273.0625 31 272 C32.6396721 270.63360658 34.30327614 269.29486821 36 268 C36.66 267.01 37.32 266.02 38 265 C41.94637474 265.56376782 44.83196811 266.5359752 48 269 C48.8125 271.6875 48.8125 271.6875 49 274 C51.76276177 273.47731534 54.3260876 272.89130413 57 272 C57 271.34 57 270.68 57 270 C57.99 270 58.98 270 60 270 C60.9765625 271.79036458 61.953125 273.58072917 62.9296875 275.37109375 C63.91410024 277.16618315 63.91410024 277.16618315 66 278 C69.88678721 275.63412953 72.12884146 274.11654878 74 270 C74.763125 269.34 75.52625 268.68 76.3125 268 C79.05136999 265.44266894 79.90166765 262.75540325 81.125 259.25 C83.56204263 252.89655979 87.1063996 250.07311882 92.47265625 246.08984375 C95.99094257 243.18059617 97.43306945 240.1961869 99 236 C100.70903067 232.37685498 102.11918578 229.74986811 105 227 C105.33 226.01 105.66 225.02 106 224 C106.99 224.33 107.98 224.66 109 225 C111.14255793 224.61067144 111.14255793 224.61067144 113 224 C113 223.34 113 222.68 113 222 C113.66 221.67 114.32 221.34 115 221 C115.6161065 218.74998736 115.6161065 218.74998736 116 216.125 C116.5722779 212.61979783 116.98046184 211.02930724 119 208 C119.66 208 120.32 208 121 208 C121.268125 207.46375 121.53625 206.9275 121.8125 206.375 C122.69599055 204.6080189 123.61915098 202.8607622 124.5625 201.125 C128.96629144 191.55154034 127.25936877 181.11646101 124.7109375 171.2734375 C124.00314438 168.01447796 123.79644059 165.01437802 123.6875 161.6875 C123.36110606 156.4096406 121.91946072 153.73709732 118.4765625 149.8046875 C117 148 117 148 115.5 144.3125 C113.60570591 140.12926723 111.72725094 138.61700598 108 136 C107.34 136 106.68 136 106 136 C105.76216797 135.00419922 105.76216797 135.00419922 105.51953125 133.98828125 C104.01230955 128.28415493 102.6278093 124.91583864 98 121 C94.54542388 115.81813582 94.71726658 109.38303883 95.4375 103.3125 C95.623125 102.549375 95.80875 101.78625 96 101 C96.66 101 97.32 101 98 101 C97.08137175 97.82655696 96.61971964 96.35173277 93.6875 94.6875 C90.99859913 93.99964164 88.76192463 93.84217574 86 94 C85.566875 92.5459375 85.566875 92.5459375 85.125 91.0625 C84.35785318 87.89335797 84.35785318 87.89335797 82 87 C82 85.68 82 84.36 82 83 C81.38125 82.46375 80.7625 81.9275 80.125 81.375 C77.29049317 78.20702178 77.09247053 75.37066465 76.4921875 71.2421875 C76.16946325 68.81009412 76.16946325 68.81009412 74 67 C69.14865554 71.03228631 64.817178 75.20740984 60.7265625 80.0078125 C58.97764952 82.02578902 57.17671311 83.96318996 55.3125 85.875 C54.77238281 86.42929688 54.23226562 86.98359375 53.67578125 87.5546875 C49.60294412 91.06739085 46.58683548 91.23622686 41.25 90.875 C35.90977562 90.4322871 32.29324176 89.45353004 27.7109375 86.8046875 C22.96035989 84.57039757 17.64691893 87.4268825 13.0625 89.0625 C11.37246336 89.70166594 9.68406269 90.34525592 8 91 C8 91.33 8 91.66 8 92 C4.04 91.67 0.08 91.34 -4 91 C-4 91.66 -4 92.32 -4 93 C-4.70125 92.773125 -5.4025 92.54625 -6.125 92.3125 C-10.03299081 91.88771839 -11.76239828 92.81813797 -15 95 C-15.391875 96.03125 -15.78375 97.0625 -16.1875 98.125 C-18 101 -18 101 -20.625 101.609375 C-23.42654124 101.85236582 -26.18851565 101.99045336 -29 102 C-33 96.25 -33 96.25 -33 94 C-34.65 94 -36.3 94 -38 94 C-38.33 93.01 -38.66 92.02 -39 91 C-42.77847486 90.72352623 -44.97299071 90.98842459 -48.5 92.5 C-52.20276237 94.08689816 -54.04219576 94.56540061 -58 94 C-59.24513626 93.36365824 -60.47326755 92.69349455 -61.6875 92 C-66.61370841 89.30344878 -71.50713977 89.43591839 -77 90 C-77.99 90.495 -77.99 90.495 -79 91 C-80.99960012 91.039992 -83.00047242 91.04346799 -85 91 C-86.45439172 93.99968291 -87.00110337 95.94152133 -86.9375 99.3125 C-87.00333349 103.19667581 -87.80614146 105.61025675 -89.34375 109.10546875 C-90.21820754 111.29578238 -90.21820754 111.29578238 -90 115 C-90.66 115 -91.32 115 -92 115 C-93.77665802 120.12095546 -94.27665755 123.57420541 -93 129 C-92.34 129.66 -91.68 130.32 -91 131 C-90.33848127 136.29214985 -90.90702733 139.21793294 -93.5 143.875 C-96.18833546 148.81634388 -97.22815742 153.42211838 -96 159 C-94.84895833 160.84895833 -94.84895833 160.84895833 -93 162 C-90.76151491 162.39274748 -90.76151491 162.39274748 -88.3125 162.375 C-83.49859952 162.70242883 -80.96399828 164.04499302 -77.09375 166.7890625 C-73.36745274 168.94419711 -69.21769915 169.42093065 -65 170 C-66 173 -66 173 -67.390625 174.82421875 C-69.2642485 177.35724858 -70.44112779 179.9484229 -71.75 182.8125 C-75.8696448 191.1428874 -80.96342599 195.42119679 -88.6640625 200.3359375 C-94.03350848 204.16099434 -98.59742948 209.11351191 -102.625 214.3125 C-105.98100783 218.1100878 -109.62870075 220.27431646 -114.52734375 221.7734375 C-117.79812429 223.39591 -118.4954619 225.11870355 -120.0625 228.375 C-122.57904049 233.5475015 -124.6908543 237.09445267 -130.1875 239.25 C-131.115625 239.8275 -132.04375 240.405 -133 241 C-133.63010144 243.85969117 -133.91726726 246.12503714 -134 249 C-134.44600269 254.6196339 -135.53283852 258.67951573 -137.953125 263.765625 C-139.51716341 267.10379653 -140.73114504 270.53948647 -142 274 C-142.50660156 275.17369141 -142.50660156 275.17369141 -143.0234375 276.37109375 C-144.07761911 279.20895065 -144.56935302 281.81719648 -145 284.8125 C-145.16371094 285.94558594 -145.32742187 287.07867187 -145.49609375 288.24609375 C-146.21266355 293.58426105 -146.88688738 298.92655872 -147.53515625 304.2734375 C-147.98213217 307.85675702 -148.47835937 311.42699247 -149 315 C-149.99 315 -150.98 315 -152 315 C-156.33999069 310.07648116 -159.30537756 303.75962963 -162.375 297.99609375 C-164.13824893 294.74510353 -166.00404619 291.56512242 -167.875 288.375 C-172.42356989 280.47850897 -176.36553567 272.35434225 -180 264 C-180.51095215 262.82703369 -180.51095215 262.82703369 -181.03222656 261.63037109 C-199.79554284 217.68749633 -201.65651961 165.69456871 -184 121 C-177.27771469 104.38048366 -169.22927244 89.03659055 -158 75 C-157.02546875 73.71996094 -157.02546875 73.71996094 -156.03125 72.4140625 C-125.99148229 33.94005232 -80.29589398 8.22426257 -32.04003906 1.59326172 C-21.42109143 0.33868017 -10.69047872 -0.54143588 0 0 Z M37.9375 276 C37.298125 276.66 36.65875 277.32 36 278 C37.98 278.99 37.98 278.99 40 280 C40.33 278.02 40.66 276.04 41 274 C39.64082319 273.88397569 39.64082319 273.88397569 37.9375 276 Z " fill="#CC383D" transform="translate(332,46)"/>
<path d="M0 0 C0.33 0 0.66 0 1 0 C1.33 12.21 1.66 24.42 2 37 C1.67 37 1.34 37 1 37 C-0.55435387 32.16945167 -1.24843388 28.13174905 -1.23046875 23.0078125 C-1.22853516 21.72648437 -1.22660156 20.44515625 -1.22460938 19.125 C-1.21840576 18.46886719 -1.21220215 17.81273437 -1.20581055 17.13671875 C-1.18735664 15.10924935 -1.18530259 13.0822328 -1.18554688 11.0546875 C-1.14039066 1.14039066 -1.14039066 1.14039066 0 0 Z " fill="#CD2B2E" transform="translate(138,224)"/>
<path d="M0 0 C0.33 0 0.66 0 1 0 C1.33 2.97 1.66 5.94 2 9 C1.67 9 1.34 9 1 9 C1 10.98 1 12.96 1 15 C1.33 15 1.66 15 2 15 C2 22.26 2 29.52 2 37 C1.67 37 1.34 37 1 37 C0.67 31.06 0.34 25.12 0 19 C-0.33 24.61 -0.66 30.22 -1 36 C-1.33 36 -1.66 36 -2 36 C-2.24077143 23.81429023 -1.73064677 12.06817081 0 0 Z " fill="#C94C50" transform="translate(138,206)"/>
<path d="M0 0 C2.78633754 1.39316877 2.93492694 3.15980516 4 6 C4.98267859 7.20561184 4.98267859 7.20561184 6.84765625 7.09765625 C8.8984375 7.06510417 10.94921875 7.03255208 13 7 C13 7.66 13 8.32 13 9 C10.36 9 7.72 9 5 9 C5 9.66 5 10.32 5 11 C4.01 10.67 3.02 10.34 2 10 C1.67 9.34 1.34 8.68 1 8 C-0.64363134 7.27840576 -2.31050386 6.60648579 -4 6 C-3.34 4.68 -2.68 3.36 -2 2 C-1.34 2 -0.68 2 0 2 C0 1.34 0 0.68 0 0 Z " fill="#D13F41" transform="translate(337,317)"/>
<path d="M0 0 C0.99 0.33 1.98 0.66 3 1 C1.39852104 3.10626032 -0.20604875 5.21003738 -1.8125 7.3125 C-2.26431641 7.90740234 -2.71613281 8.50230469 -3.18164062 9.11523438 C-5.31610234 11.90405661 -7.41080206 14.61724973 -10 17 C-9.51814387 12.2778099 -7.30336567 9.29945628 -4.4375 5.6875 C-4.01275391 5.13771484 -3.58800781 4.58792969 -3.15039062 4.02148438 C-2.10818741 2.6748173 -1.05516157 1.33653799 0 0 Z " fill="#CE3234" transform="translate(180,113)"/>
<path d="M0 0 C0 0.33 0 0.66 0 1 C-1.98 1.33 -3.96 1.66 -6 2 C-6 2.33 -6 2.66 -6 3 C-7.72814161 3.19672365 -9.45759197 3.38196799 -11.1875 3.5625 C-12.15042969 3.66691406 -13.11335938 3.77132812 -14.10546875 3.87890625 C-16.94233377 3.99758751 -19.25423671 3.67765639 -22 3 C-22 2.67 -22 2.34 -22 2 C-7.40318907 -0.29612756 -7.40318907 -0.29612756 0 0 Z " fill="#CF4143" transform="translate(314,47)"/>
<path d="M0 0 C0.33 0.66 0.66 1.32 1 2 C0.45730469 2.38671875 -0.08539063 2.7734375 -0.64453125 3.171875 C-1.71767578 3.95304687 -1.71767578 3.95304687 -2.8125 4.75 C-3.52019531 5.26046875 -4.22789062 5.7709375 -4.95703125 6.296875 C-7.02977691 8.02482358 -8.47375854 9.78526476 -10 12 C-10.99 11.67 -11.98 11.34 -13 11 C-11.40207236 9.34810857 -9.79644124 7.7036661 -8.1875 6.0625 C-7.29417969 5.14597656 -6.40085938 4.22945313 -5.48046875 3.28515625 C-3 1 -3 1 0 0 Z " fill="#CF3233" transform="translate(198,97)"/>
<path d="M0 0 C0.33 0.99 0.66 1.98 1 3 C-0.43359375 5.69921875 -0.43359375 5.69921875 -2.4375 8.6875 C-3.09621094 9.68136719 -3.75492187 10.67523438 -4.43359375 11.69921875 C-4.95050781 12.45847656 -5.46742188 13.21773438 -6 14 C-6.99 13.67 -7.98 13.34 -9 13 C-6.03 8.71 -3.06 4.42 0 0 Z " fill="#CE3333" transform="translate(394,477)"/>
<path d="M0 0 C2 1 2 1 2.62109375 2.609375 C3.13369428 5.84351443 3.09280305 8.97727051 3.0625 12.25 C3.05347656 13.51328125 3.04445313 14.7765625 3.03515625 16.078125 C3.02355469 17.04234375 3.01195312 18.0065625 3 19 C2.67 19 2.34 19 2 19 C1.90912109 17.93458984 1.90912109 17.93458984 1.81640625 16.84765625 C1.73261719 15.92855469 1.64882813 15.00945312 1.5625 14.0625 C1.48128906 13.14597656 1.40007812 12.22945312 1.31640625 11.28515625 C1.23955024 9.03840268 1.23955024 9.03840268 0 8 C-0.14115161 5.32941149 -0.04247107 2.67567762 0 0 Z " fill="#D12E31" transform="translate(459,219)"/>
<path d="M0 0 C2.45605371 2.55274874 2.98802939 3.85890643 3.29296875 7.453125 C3.25816406 8.70609375 3.22335937 9.9590625 3.1875 11.25 C3.16042969 12.51328125 3.13335938 13.7765625 3.10546875 15.078125 C3.07066406 16.04234375 3.03585937 17.0065625 3 18 C2.67 18 2.34 18 2 18 C0.77100654 11.93184478 -0.27560214 6.20104812 0 0 Z " fill="#CF2D2F" transform="translate(511,198)"/>
<path d="M0 0 C2.15059309 3.53186832 2.3797728 6.66287993 2.625 10.75 C2.69976562 11.92046875 2.77453125 13.0909375 2.8515625 14.296875 C2.90054687 15.18890625 2.94953125 16.0809375 3 17 C2.01 16.34 1.02 15.68 0 15 C-0.22137393 12.37302936 -0.28162025 9.99106036 -0.1875 7.375 C-0.17396484 6.66859375 -0.16042969 5.9621875 -0.14648438 5.234375 C-0.1111104 3.48925872 -0.05730221 1.74453392 0 0 Z " fill="#CF2C2D" transform="translate(429,151)"/>
<path d="M0 0 C1.15242188 0.00902344 2.30484375 0.01804688 3.4921875 0.02734375 C4.36101562 0.03894531 5.22984375 0.05054688 6.125 0.0625 C6.125 0.3925 6.125 0.7225 6.125 1.0625 C3.485 1.3925 0.845 1.7225 -1.875 2.0625 C-1.875 2.3925 -1.875 2.7225 -1.875 3.0625 C-3.133125 3.10375 -4.39125 3.145 -5.6875 3.1875 C-6.39519531 3.21070313 -7.10289062 3.23390625 -7.83203125 3.2578125 C-9.875 3.0625 -9.875 3.0625 -12.875 1.0625 C-8.52167264 0.22226812 -4.43057481 -0.04520995 0 0 Z " fill="#D04043" transform="translate(340.875,46.9375)"/>
<path d="M0 0 C1.32 0.33 2.64 0.66 4 1 C3.67 1.66 3.34 2.32 3 3 C2.67 3.99 2.34 4.98 2 6 C-1 8 -1 8 -3.1875 7.625 C-3.785625 7.41875 -4.38375 7.2125 -5 7 C-4 5 -4 5 -1 4 C-0.26676204 1.98491642 -0.26676204 1.98491642 0 0 Z " fill="#D12F34" transform="translate(370,312)"/>
<path d="M0 0 C0.66 0 1.32 0 2 0 C4.4021604 4.8043208 4.61122229 9.73103895 5 15 C2.82813579 12.82813579 2.3206752 11.50023469 1.375 8.625 C1.11460937 7.85414063 0.85421875 7.08328125 0.5859375 6.2890625 C0 4 0 4 0 0 Z " fill="#CE2F31" transform="translate(503,169)"/>
<path d="M0 0 C3.3 0 6.6 0 10 0 C9 3 9 3 6.9375 4.1875 C6.298125 4.455625 5.65875 4.72375 5 5 C5 4.01 5 3.02 5 2 C3.35 1.67 1.7 1.34 0 1 C0 0.67 0 0.34 0 0 Z " fill="#CF4242" transform="translate(257,216)"/>
<path d="M0 0 C0.268125 0.61875 0.53625 1.2375 0.8125 1.875 C1.95556848 4.2995233 1.95556848 4.2995233 5 6 C4.67 6.66 4.34 7.32 4 8 C5.32 8.66 6.64 9.32 8 10 C6.35 10.33 4.7 10.66 3 11 C2.71125 10.030625 2.4225 9.06125 2.125 8.0625 C1.35785318 4.89335797 1.35785318 4.89335797 -1 4 C-0.67 2.68 -0.34 1.36 0 0 Z " fill="#D15053" transform="translate(415,129)"/>
<path d="M0 0 C-1.78614318 1.03046722 -3.57910018 2.04913236 -5.375 3.0625 C-6.87160156 3.91521484 -6.87160156 3.91521484 -8.3984375 4.78515625 C-9.25695312 5.18605469 -10.11546875 5.58695312 -11 6 C-11.66 5.67 -12.32 5.34 -13 5 C-9.44809236 0.85610776 -5.36327214 -1.71439369 0 0 Z " fill="#D03234" transform="translate(249,65)"/>
<path d="M0 0 C0.33 0 0.66 0 1 0 C2.26305335 5.07476794 3.27036084 9.72796354 3 15 C2.34 15 1.68 15 1 15 C-0.00109515 11.68929162 -0.10356134 8.69915231 -0.0625 5.25 C-0.05347656 4.26515625 -0.04445313 3.2803125 -0.03515625 2.265625 C-0.02355469 1.51796875 -0.01195312 0.7703125 0 0 Z " fill="#CF4547" transform="translate(456,203)"/>
<path d="M0 0 C4.29 0.66 8.58 1.32 13 2 C13 2.33 13 2.66 13 3 C9.37 3.33 5.74 3.66 2 4 C1.34 2.68 0.68 1.36 0 0 Z " fill="#D15B5C" transform="translate(301,144)"/>
<path d="M0 0 C4.20390632 1.50139512 5.89110738 4.17275043 8 8 C7.67 8.99 7.34 9.98 7 11 C5.82750647 9.54634731 4.66216184 8.08692581 3.5 6.625 C2.52546875 5.40683594 2.52546875 5.40683594 1.53125 4.1640625 C0 2 0 2 0 0 Z " fill="#CC2E31" transform="translate(475,119)"/>
<path d="M0 0 C3.39417765 3.12621626 5.6062718 5.56541027 7 10 C3.17398693 8.54875366 1.77670876 6.64225296 0 3 C0 2.01 0 1.02 0 0 Z " fill="#CD3133" transform="translate(248,462)"/>
<path d="M0 0 C0.495 0.165 0.99 0.33 1.5 0.5 C5.03444089 1.20688818 8.39690701 1.06005155 12 1 C8.71508627 3.18994248 7.16904361 3.35277339 3.3125 3.625 C1.82169922 3.73714844 1.82169922 3.73714844 0.30078125 3.8515625 C-0.83810547 3.92503906 -0.83810547 3.92503906 -2 4 C-1.34 2.68 -0.68 1.36 0 0 Z " fill="#CC5657" transform="translate(226,380)"/>
<path d="M0 0 C0.33 0 0.66 0 1 0 C0.25 6.625 0.25 6.625 -2 10 C-2.66 10 -3.32 10 -4 10 C-2.8905928 6.51329166 -1.73662334 3.22515763 0 0 Z " fill="#CF3132" transform="translate(498,308)"/>
<path d="M0 0 C0.99 0.33 1.98 0.66 3 1 C0.19195732 3.96404505 -2.18315774 6.44499019 -6 8 C-4.55746343 4.63408134 -2.66735273 2.48952921 0 0 Z " fill="#D03235" transform="translate(404,110)"/>
<path d="M0 0 C1.32 0.33 2.64 0.66 4 1 C4 1.66 4 2.32 4 3 C6.475 3.99 6.475 3.99 9 5 C7.02 5.99 7.02 5.99 5 7 C3.35 4.69 1.7 2.38 0 0 Z " fill="#C74E4F" transform="translate(199,393)"/>
<path d="M0 0 C1.485 0.99 1.485 0.99 3 2 C5.05709596 2.24055468 5.05709596 2.24055468 7.1875 2.125 C8.445625 2.08375 9.70375 2.0425 11 2 C11 2.66 11 3.32 11 4 C6.545 4.495 6.545 4.495 2 5 C1.34 3.35 0.68 1.7 0 0 Z " fill="#CB5C5D" transform="translate(339,322)"/>
<path d="M0 0 C0.33 0 0.66 0 1 0 C1.33 2.64 1.66 5.28 2 8 C2.66 8 3.32 8 4 8 C4 8.66 4 9.32 4 10 C2.68 10 1.36 10 0 10 C0 6.7 0 3.4 0 0 Z " fill="#D42C2E" transform="translate(411,117)"/>
<path d="M0 0 C-1 2 -1 2 -2.9375 2.6875 C-5 3 -5 3 -7 2 C-7.33 2.66 -7.66 3.32 -8 4 C-8.66 3.34 -9.32 2.68 -10 2 C-3.375 -1.125 -3.375 -1.125 0 0 Z " fill="#CE4447" transform="translate(264,58)"/>
<path d="M0 0 C0.33 0 0.66 0 1 0 C1.24954005 1.43410368 1.47392642 2.87260072 1.6875 4.3125 C1.87892578 5.51326172 1.87892578 5.51326172 2.07421875 6.73828125 C2 9 2 9 -1 12 C-0.67 8.04 -0.34 4.08 0 0 Z " fill="#CA494C" transform="translate(138,206)"/>
<path d="M0 0 C6.52307692 -0.36923077 6.52307692 -0.36923077 8.9375 1.5 C9.288125 1.995 9.63875 2.49 10 3 C8 4 8 4 5 3.1875 C2 2 2 2 0 0 Z " fill="#D14849" transform="translate(354,130)"/>
<path d="M0 0 C0.66 0.66 1.32 1.32 2 2 C0.68 1.67 -0.64 1.34 -2 1 C-1.34 0.67 -0.68 0.34 0 0 Z " fill="#CC5154" transform="translate(406,114)"/>
<path d="M0 0 C0 3 0 3 0 3 Z " fill="#CA5153" transform="translate(370,322)"/>
<path d="M0 0 C1 4 1 4 1 4 Z " fill="#C04C4F" transform="translate(136,255)"/>
<path d="M0 0 C0.99 0 1.98 0 3 0 C2.67 0.66 2.34 1.32 2 2 C1.34 1.34 0.68 0.68 0 0 Z " fill="#D05558" transform="translate(248,138)"/>
<path d="M0 0 C0.99 0.495 0.99 0.495 2 1 C1.01 1.495 1.01 1.495 0 2 C0 1.34 0 0.68 0 0 Z " fill="#C04B4F" transform="translate(254,477)"/>
<path d="" fill="#CF5A5C" transform="translate(0,0)"/>
<path d="M0 0 C3 1 3 1 3 1 Z " fill="#CC5C5D" transform="translate(317,326)"/>
<path d="" fill="#C24B50" transform="translate(0,0)"/>
<path d="" fill="#C04D51" transform="translate(0,0)"/>
<path d="" fill="#BE4C51" transform="translate(0,0)"/>
<path d="" fill="#CC5358" transform="translate(0,0)"/>
<path d="M0 0 C0.33 0.66 0.66 1.32 1 2 C0.34 1.67 -0.32 1.34 -1 1 C-0.67 0.67 -0.34 0.34 0 0 Z " fill="#CE565A" transform="translate(431,170)"/>
<path d="M0 0 C3 1 3 1 3 1 Z " fill="#C14A4D" transform="translate(271,52)"/>
<path d="" fill="#C24B4F" transform="translate(0,0)"/>
<path d="M0 0 C2 1 2 1 2 1 Z " fill="#BE4B4F" transform="translate(272,504)"/>
<path d="M0 0 C2 1 2 1 2 1 Z " fill="#C75658" transform="translate(230,380)"/>
<path d="M0 0 C2 1 2 1 2 1 Z " fill="#C45659" transform="translate(223,380)"/>
<path d="M0 0 C2 1 2 1 2 1 Z " fill="#CC595C" transform="translate(324,326)"/>
<path d="" fill="#CD5759" transform="translate(0,0)"/>
<path d="" fill="#C0484D" transform="translate(0,0)"/>
<path d="" fill="#C24B50" transform="translate(0,0)"/>
<path d="" fill="#BF4C4E" transform="translate(0,0)"/>
<path d="" fill="#BF4B4F" transform="translate(0,0)"/>
<path d="M0 0 C2 1 2 1 2 1 Z " fill="#CE5B5B" transform="translate(262,214)"/>
<path d="" fill="#BE4B4F" transform="translate(0,0)"/>
<path d="" fill="#D15759" transform="translate(0,0)"/>
<path d="" fill="#C0494E" transform="translate(0,0)"/>
<path d="" fill="#BF4B4F" transform="translate(0,0)"/>
<path d="" fill="#CF5557" transform="translate(0,0)"/>
<path d="" fill="#D3575A" transform="translate(0,0)"/>
<path d="M0 0 C2 1 2 1 2 1 Z " fill="#CF5859" transform="translate(282,139)"/>
<path d="M0 0 C2 1 2 1 2 1 Z " fill="#D15459" transform="translate(406,119)"/>
<path d="M0 0 C2 1 2 1 2 1 Z " fill="#C44A50" transform="translate(264,54)"/>
<path d="M0 0 C2 1 2 1 2 1 Z " fill="#C44A4F" transform="translate(379,52)"/>
<path d="M0 0 C2 1 2 1 2 1 Z " fill="#C44C4F" transform="translate(300,46)"/>
<path d="" fill="#AE5154" transform="translate(0,0)"/>
<path d="" fill="#B25154" transform="translate(0,0)"/>
<path d="" fill="#BC494C" transform="translate(0,0)"/>
<path d="" fill="#B74A4D" transform="translate(0,0)"/>
<path d="" fill="#BD4E53" transform="translate(0,0)"/>
<path d="" fill="#BF4E52" transform="translate(0,0)"/>
<path d="" fill="#C1494B" transform="translate(0,0)"/>
<path d="" fill="#C14C52" transform="translate(0,0)"/>
<path d="" fill="#C44D50" transform="translate(0,0)"/>
<path d="" fill="#C14F52" transform="translate(0,0)"/>
<path d="" fill="#C24E51" transform="translate(0,0)"/>
<path d="" fill="#BF4E52" transform="translate(0,0)"/>
<path d="" fill="#C24C51" transform="translate(0,0)"/>
<path d="" fill="#C04D4F" transform="translate(0,0)"/>
<path d="" fill="#C24A50" transform="translate(0,0)"/>
<path d="" fill="#BC494D" transform="translate(0,0)"/>
<path d="" fill="#C0474B" transform="translate(0,0)"/>
<path d="" fill="#C24D50" transform="translate(0,0)"/>
<path d="" fill="#C24A4F" transform="translate(0,0)"/>
<path d="" fill="#C24B4E" transform="translate(0,0)"/>
<path d="" fill="#C24C50" transform="translate(0,0)"/>
<path d="" fill="#C34A4E" transform="translate(0,0)"/>
<path d="" fill="#C25052" transform="translate(0,0)"/>
<path d="" fill="#C44E52" transform="translate(0,0)"/>
<path d="" fill="#C14C50" transform="translate(0,0)"/>
<path d="" fill="#BF4D51" transform="translate(0,0)"/>
<path d="" fill="#BE4A50" transform="translate(0,0)"/>
<path d="" fill="#C04D4F" transform="translate(0,0)"/>
<path d="" fill="#C44D4F" transform="translate(0,0)"/>
<path d="" fill="#C04D4E" transform="translate(0,0)"/>
<path d="" fill="#C14E53" transform="translate(0,0)"/>
<path d="" fill="#C04B4E" transform="translate(0,0)"/>
<path d="" fill="#C14E54" transform="translate(0,0)"/>
<path d="" fill="#C14E52" transform="translate(0,0)"/>
<path d="" fill="#C44A4D" transform="translate(0,0)"/>
<path d="" fill="#BC5254" transform="translate(0,0)"/>
<path d="" fill="#C15253" transform="translate(0,0)"/>
<path d="" fill="#BA5656" transform="translate(0,0)"/>
<path d="" fill="#C85656" transform="translate(0,0)"/>
<path d="" fill="#BD4A4F" transform="translate(0,0)"/>
<path d="" fill="#C75759" transform="translate(0,0)"/>
<path d="" fill="#CD5656" transform="translate(0,0)"/>
<path d="" fill="#CE5859" transform="translate(0,0)"/>
<path d="" fill="#CE5759" transform="translate(0,0)"/>
<path d="" fill="#CF5A5C" transform="translate(0,0)"/>
<path d="" fill="#CF5A5E" transform="translate(0,0)"/>
<path d="" fill="#C15354" transform="translate(0,0)"/>
<path d="" fill="#BD5053" transform="translate(0,0)"/>
<path d="" fill="#C04A4E" transform="translate(0,0)"/>
<path d="" fill="#CF595C" transform="translate(0,0)"/>
<path d="" fill="#CF5B5B" transform="translate(0,0)"/>
<path d="" fill="#CA5858" transform="translate(0,0)"/>
<path d="" fill="#C24D52" transform="translate(0,0)"/>
<path d="" fill="#C04C51" transform="translate(0,0)"/>
<path d="" fill="#BF4B4E" transform="translate(0,0)"/>
<path d="" fill="#CF5F5E" transform="translate(0,0)"/>
<path d="" fill="#C24E51" transform="translate(0,0)"/>
<path d="" fill="#C44C4E" transform="translate(0,0)"/>
<path d="" fill="#CB595E" transform="translate(0,0)"/>
<path d="" fill="#CA595E" transform="translate(0,0)"/>
<path d="" fill="#C95657" transform="translate(0,0)"/>
<path d="" fill="#CD5659" transform="translate(0,0)"/>
<path d="" fill="#CF5559" transform="translate(0,0)"/>
<path d="" fill="#CA5457" transform="translate(0,0)"/>
<path d="" fill="#CE5658" transform="translate(0,0)"/>
<path d="" fill="#C95256" transform="translate(0,0)"/>
<path d="" fill="#C7515A" transform="translate(0,0)"/>
<path d="" fill="#CE5D5D" transform="translate(0,0)"/>
<path d="" fill="#CF565A" transform="translate(0,0)"/>
<path d="" fill="#CB5859" transform="translate(0,0)"/>
<path d="" fill="#BF4C51" transform="translate(0,0)"/>
<path d="" fill="#D05C5D" transform="translate(0,0)"/>
<path d="" fill="#CF595A" transform="translate(0,0)"/>
<path d="" fill="#CE585A" transform="translate(0,0)"/>
<path d="" fill="#C44C4F" transform="translate(0,0)"/>
<path d="" fill="#C14A4E" transform="translate(0,0)"/>
<path d="" fill="#C04C50" transform="translate(0,0)"/>
<path d="" fill="#CF585A" transform="translate(0,0)"/>
<path d="" fill="#CA5658" transform="translate(0,0)"/>
<path d="" fill="#C95457" transform="translate(0,0)"/>
<path d="" fill="#CF585A" transform="translate(0,0)"/>
<path d="" fill="#CB5153" transform="translate(0,0)"/>
<path d="" fill="#BF4F51" transform="translate(0,0)"/>
<path d="" fill="#CF5658" transform="translate(0,0)"/>
<path d="" fill="#C24D51" transform="translate(0,0)"/>
<path d="" fill="#C1494E" transform="translate(0,0)"/>
<path d="" fill="#C04D51" transform="translate(0,0)"/>
<path d="" fill="#C14E50" transform="translate(0,0)"/>
<path d="" fill="#C14E52" transform="translate(0,0)"/>
<path d="" fill="#D0585B" transform="translate(0,0)"/>
<path d="" fill="#CF5C5E" transform="translate(0,0)"/>
<path d="" fill="#D05859" transform="translate(0,0)"/>
<path d="" fill="#BF4D51" transform="translate(0,0)"/>
<path d="" fill="#C14C4F" transform="translate(0,0)"/>
<path d="" fill="#C34C52" transform="translate(0,0)"/>
<path d="" fill="#C24B4F" transform="translate(0,0)"/>
<path d="" fill="#C14D52" transform="translate(0,0)"/>
<path d="" fill="#C14C51" transform="translate(0,0)"/>
<path d="" fill="#CE5357" transform="translate(0,0)"/>
<path d="" fill="#D0575B" transform="translate(0,0)"/>
<path d="" fill="#C24C52" transform="translate(0,0)"/>
<path d="" fill="#CE5456" transform="translate(0,0)"/>
<path d="" fill="#CA5759" transform="translate(0,0)"/>
<path d="" fill="#CD5559" transform="translate(0,0)"/>
<path d="" fill="#C14D50" transform="translate(0,0)"/>
<path d="" fill="#CF5358" transform="translate(0,0)"/>
<path d="" fill="#D2585B" transform="translate(0,0)"/>
<path d="" fill="#CF5759" transform="translate(0,0)"/>
<path d="" fill="#C04C50" transform="translate(0,0)"/>
<path d="" fill="#C04D4F" transform="translate(0,0)"/>
<path d="" fill="#D15859" transform="translate(0,0)"/>
<path d="" fill="#D05657" transform="translate(0,0)"/>
<path d="" fill="#C24C50" transform="translate(0,0)"/>
<path d="" fill="#D15256" transform="translate(0,0)"/>
<path d="" fill="#CD5457" transform="translate(0,0)"/>
<path d="" fill="#CE5457" transform="translate(0,0)"/>
<path d="" fill="#D25358" transform="translate(0,0)"/>
<path d="" fill="#BE4C4F" transform="translate(0,0)"/>
<path d="" fill="#CD5255" transform="translate(0,0)"/>
<path d="" fill="#C34D4F" transform="translate(0,0)"/>
<path d="" fill="#D05659" transform="translate(0,0)"/>
<path d="" fill="#D2595C" transform="translate(0,0)"/>
<path d="" fill="#BE494E" transform="translate(0,0)"/>
<path d="" fill="#D55A5D" transform="translate(0,0)"/>
<path d="" fill="#D25458" transform="translate(0,0)"/>
<path d="" fill="#D25459" transform="translate(0,0)"/>
<path d="" fill="#D15558" transform="translate(0,0)"/>
<path d="" fill="#D1575A" transform="translate(0,0)"/>
<path d="" fill="#D5585A" transform="translate(0,0)"/>
<path d="" fill="#D1595E" transform="translate(0,0)"/>
<path d="" fill="#D4595E" transform="translate(0,0)"/>
<path d="" fill="#BF484C" transform="translate(0,0)"/>
<path d="" fill="#D05558" transform="translate(0,0)"/>
<path d="" fill="#BE4C4F" transform="translate(0,0)"/>
<path d="" fill="#D25758" transform="translate(0,0)"/>
<path d="" fill="#D15959" transform="translate(0,0)"/>
<path d="" fill="#BB484D" transform="translate(0,0)"/>
<path d="" fill="#CB5556" transform="translate(0,0)"/>
<path d="" fill="#D35558" transform="translate(0,0)"/>
<path d="" fill="#D15557" transform="translate(0,0)"/>
<path d="" fill="#CD5356" transform="translate(0,0)"/>
<path d="" fill="#D05557" transform="translate(0,0)"/>
<path d="" fill="#C04C4E" transform="translate(0,0)"/>
<path d="" fill="#BB4B4C" transform="translate(0,0)"/>
<path d="" fill="#BD4C4D" transform="translate(0,0)"/>
<path d="" fill="#C04A4B" transform="translate(0,0)"/>
<path d="" fill="#BB494C" transform="translate(0,0)"/>
<path d="" fill="#C04C4F" transform="translate(0,0)"/>
<path d="" fill="#BF484B" transform="translate(0,0)"/>
<path d="" fill="#C14849" transform="translate(0,0)"/>
<path d="" fill="#C0494D" transform="translate(0,0)"/>
<path d="" fill="#C14B4F" transform="translate(0,0)"/>
<path d="" fill="#C24B4F" transform="translate(0,0)"/>
<path d="" fill="#C3484A" transform="translate(0,0)"/>
<path d="" fill="#C04B4E" transform="translate(0,0)"/>
<path d="" fill="#BE4B4D" transform="translate(0,0)"/>
<path d="" fill="#BF474D" transform="translate(0,0)"/>
<path d="" fill="#C34850" transform="translate(0,0)"/>
<path d="" fill="#C0494E" transform="translate(0,0)"/>
<path d="" fill="#C5494C" transform="translate(0,0)"/>
<path d="" fill="#C44C51" transform="translate(0,0)"/>
<path d="" fill="#C84E53" transform="translate(0,0)"/>
<path d="" fill="#C84B50" transform="translate(0,0)"/>
<path d="" fill="#C94F51" transform="translate(0,0)"/>
<path d="" fill="#C64F55" transform="translate(0,0)"/>
</svg>
